<mxfile host="app.diagrams.net" agent="Mozilla/5.0 (Macintosh; Intel Mac OS X 10_15_7) AppleWebKit/605.1.15 (KHTML, like Gecko) Version/18.1.1 Safari/605.1.15" version="25.0.1">
  <diagram name="Page-1" id="FtNxCwowRMe4gdOH6G9q">
    <mxGraphModel dx="1194" dy="772" grid="1" gridSize="10" guides="1" tooltips="1" connect="1" arrows="1" fold="1" page="1" pageScale="1" pageWidth="827" pageHeight="1169" math="0" shadow="0">
      <root>
        <mxCell id="0" />
        <mxCell id="1" parent="0" />
        <mxCell id="NFPU-fY8RmMyaIiQJH1n-85" style="edgeStyle=orthogonalEdgeStyle;rounded=0;orthogonalLoop=1;jettySize=auto;html=1;exitX=0.344;exitY=0.992;exitDx=0;exitDy=0;exitPerimeter=0;entryX=0.75;entryY=0;entryDx=0;entryDy=0;" edge="1" parent="1" source="NFPU-fY8RmMyaIiQJH1n-86" target="NFPU-fY8RmMyaIiQJH1n-180">
          <mxGeometry relative="1" as="geometry">
            <mxPoint x="4510" y="560" as="targetPoint" />
          </mxGeometry>
        </mxCell>
        <mxCell id="NFPU-fY8RmMyaIiQJH1n-86" value="Real time service" style="rounded=1;whiteSpace=wrap;html=1;strokeColor=#66B2FF;strokeWidth=2;verticalAlign=top;labelPosition=center;verticalLabelPosition=middle;align=center;arcSize=19;spacingLeft=0;spacingRight=0;spacingBottom=0;spacing=0;dashed=1;" vertex="1" parent="1">
          <mxGeometry x="4420" y="265" width="240" height="130" as="geometry" />
        </mxCell>
        <mxCell id="NFPU-fY8RmMyaIiQJH1n-87" value="message" style="edgeStyle=orthogonalEdgeStyle;rounded=0;orthogonalLoop=1;jettySize=auto;html=1;entryX=0;entryY=0.5;entryDx=0;entryDy=0;" edge="1" parent="1" source="NFPU-fY8RmMyaIiQJH1n-88" target="NFPU-fY8RmMyaIiQJH1n-93">
          <mxGeometry relative="1" as="geometry" />
        </mxCell>
        <mxCell id="NFPU-fY8RmMyaIiQJH1n-88" value="sender" style="rounded=1;whiteSpace=wrap;html=1;strokeColor=#66B2FF;strokeWidth=2;verticalAlign=bottom;" vertex="1" parent="1">
          <mxGeometry x="90" y="100" width="70" height="60" as="geometry" />
        </mxCell>
        <mxCell id="NFPU-fY8RmMyaIiQJH1n-89" value="" style="sketch=0;aspect=fixed;pointerEvents=1;shadow=0;dashed=0;html=1;strokeColor=none;labelPosition=center;verticalLabelPosition=bottom;verticalAlign=top;align=center;fillColor=#000000;shape=mxgraph.azure.laptop;labelBackgroundColor=none;labelBorderColor=none;fontColor=#000000;" vertex="1" parent="1">
          <mxGeometry x="100" y="110" width="50" height="30" as="geometry" />
        </mxCell>
        <mxCell id="NFPU-fY8RmMyaIiQJH1n-90" value="receiver" style="rounded=1;whiteSpace=wrap;html=1;strokeColor=#66B2FF;strokeWidth=2;verticalAlign=bottom;" vertex="1" parent="1">
          <mxGeometry x="490" y="100" width="70" height="60" as="geometry" />
        </mxCell>
        <mxCell id="NFPU-fY8RmMyaIiQJH1n-91" value="" style="sketch=0;pointerEvents=1;shadow=0;dashed=0;html=1;strokeColor=none;fillColor=#000000;labelPosition=center;verticalLabelPosition=bottom;verticalAlign=top;outlineConnect=0;align=center;shape=mxgraph.office.devices.cell_phone_iphone_proportional;" vertex="1" parent="1">
          <mxGeometry x="516.5" y="110" width="17" height="29" as="geometry" />
        </mxCell>
        <mxCell id="NFPU-fY8RmMyaIiQJH1n-92" value="message" style="edgeStyle=orthogonalEdgeStyle;rounded=0;orthogonalLoop=1;jettySize=auto;html=1;" edge="1" parent="1" source="NFPU-fY8RmMyaIiQJH1n-93" target="NFPU-fY8RmMyaIiQJH1n-90">
          <mxGeometry relative="1" as="geometry" />
        </mxCell>
        <mxCell id="NFPU-fY8RmMyaIiQJH1n-93" value="Chat service:&lt;div&gt;&lt;ol&gt;&lt;li&gt;store message&lt;/li&gt;&lt;li&gt;relay message&lt;/li&gt;&lt;/ol&gt;&lt;/div&gt;" style="rounded=1;html=1;strokeColor=#66B2FF;strokeWidth=2;verticalAlign=middle;whiteSpace=wrap;spacingTop=9;align=left;" vertex="1" parent="1">
          <mxGeometry x="250" y="100" width="140" height="60" as="geometry" />
        </mxCell>
        <mxCell id="NFPU-fY8RmMyaIiQJH1n-94" style="edgeStyle=orthogonalEdgeStyle;rounded=0;orthogonalLoop=1;jettySize=auto;html=1;" edge="1" parent="1" source="NFPU-fY8RmMyaIiQJH1n-95">
          <mxGeometry relative="1" as="geometry">
            <mxPoint x="780" y="680" as="targetPoint" />
            <Array as="points">
              <mxPoint x="780" y="631" />
            </Array>
          </mxGeometry>
        </mxCell>
        <mxCell id="NFPU-fY8RmMyaIiQJH1n-95" value="client" style="rounded=1;whiteSpace=wrap;html=1;strokeColor=#66B2FF;strokeWidth=2;verticalAlign=middle;" vertex="1" parent="1">
          <mxGeometry x="740" y="100" width="80" height="40" as="geometry" />
        </mxCell>
        <mxCell id="NFPU-fY8RmMyaIiQJH1n-96" style="edgeStyle=orthogonalEdgeStyle;rounded=0;orthogonalLoop=1;jettySize=auto;html=1;" edge="1" parent="1" source="NFPU-fY8RmMyaIiQJH1n-97">
          <mxGeometry relative="1" as="geometry">
            <mxPoint x="1070" y="680" as="targetPoint" />
            <Array as="points">
              <mxPoint x="1070" y="611" />
            </Array>
          </mxGeometry>
        </mxCell>
        <mxCell id="NFPU-fY8RmMyaIiQJH1n-97" value="server" style="rounded=1;whiteSpace=wrap;html=1;strokeColor=#66B2FF;strokeWidth=2;verticalAlign=middle;" vertex="1" parent="1">
          <mxGeometry x="1030" y="99" width="80" height="40" as="geometry" />
        </mxCell>
        <mxCell id="NFPU-fY8RmMyaIiQJH1n-98" value="New messages?" style="endArrow=classic;html=1;rounded=0;labelPosition=center;verticalLabelPosition=middle;align=center;verticalAlign=middle;strokeWidth=2;" edge="1" parent="1">
          <mxGeometry x="-1" y="-50" width="50" height="50" relative="1" as="geometry">
            <mxPoint x="780" y="170" as="sourcePoint" />
            <mxPoint x="1070" y="170" as="targetPoint" />
            <mxPoint x="-50" y="-50" as="offset" />
          </mxGeometry>
        </mxCell>
        <mxCell id="NFPU-fY8RmMyaIiQJH1n-99" value="NO" style="endArrow=classic;html=1;rounded=0;labelPosition=center;verticalLabelPosition=middle;align=center;verticalAlign=middle;strokeColor=#FF0000;strokeWidth=2;" edge="1" parent="1">
          <mxGeometry x="-1" y="-20" width="50" height="50" relative="1" as="geometry">
            <mxPoint x="1070" y="200" as="sourcePoint" />
            <mxPoint x="780" y="200" as="targetPoint" />
            <mxPoint x="20" y="20" as="offset" />
          </mxGeometry>
        </mxCell>
        <mxCell id="NFPU-fY8RmMyaIiQJH1n-100" value="connection closed" style="endArrow=none;html=1;rounded=0;labelPosition=center;verticalLabelPosition=middle;align=center;verticalAlign=middle;strokeColor=#000000;dashed=1;endFill=0;strokeWidth=2;" edge="1" parent="1">
          <mxGeometry x="-0.0345" width="50" height="50" relative="1" as="geometry">
            <mxPoint x="1070" y="230" as="sourcePoint" />
            <mxPoint x="780" y="230" as="targetPoint" />
            <mxPoint as="offset" />
          </mxGeometry>
        </mxCell>
        <mxCell id="NFPU-fY8RmMyaIiQJH1n-101" value="New messages?" style="endArrow=classic;html=1;rounded=0;labelPosition=center;verticalLabelPosition=middle;align=center;verticalAlign=middle;strokeWidth=2;" edge="1" parent="1">
          <mxGeometry x="-1" y="-50" width="50" height="50" relative="1" as="geometry">
            <mxPoint x="780" y="280" as="sourcePoint" />
            <mxPoint x="1070" y="280" as="targetPoint" />
            <mxPoint x="-50" y="-50" as="offset" />
          </mxGeometry>
        </mxCell>
        <mxCell id="NFPU-fY8RmMyaIiQJH1n-102" value="NO" style="endArrow=classic;html=1;rounded=0;labelPosition=center;verticalLabelPosition=middle;align=center;verticalAlign=middle;strokeColor=#FF0000;strokeWidth=2;" edge="1" parent="1">
          <mxGeometry x="-1" y="-20" width="50" height="50" relative="1" as="geometry">
            <mxPoint x="1070" y="310" as="sourcePoint" />
            <mxPoint x="780" y="310" as="targetPoint" />
            <mxPoint x="20" y="20" as="offset" />
          </mxGeometry>
        </mxCell>
        <mxCell id="NFPU-fY8RmMyaIiQJH1n-103" value="connection closed" style="endArrow=none;html=1;rounded=0;labelPosition=center;verticalLabelPosition=middle;align=center;verticalAlign=middle;strokeColor=#000000;dashed=1;endFill=0;strokeWidth=2;" edge="1" parent="1">
          <mxGeometry x="-0.0345" width="50" height="50" relative="1" as="geometry">
            <mxPoint x="1070" y="340" as="sourcePoint" />
            <mxPoint x="780" y="340" as="targetPoint" />
            <mxPoint as="offset" />
          </mxGeometry>
        </mxCell>
        <mxCell id="NFPU-fY8RmMyaIiQJH1n-104" value="&lt;span&gt;&lt;font&gt;Polling&lt;/font&gt;&lt;/span&gt;" style="text;html=1;align=center;verticalAlign=middle;resizable=0;points=[];autosize=1;strokeColor=none;fillColor=none;fontStyle=1;fontSize=18;" vertex="1" parent="1">
          <mxGeometry x="880" y="48" width="80" height="30" as="geometry" />
        </mxCell>
        <mxCell id="NFPU-fY8RmMyaIiQJH1n-105" value="New messages?" style="endArrow=classic;html=1;rounded=0;labelPosition=center;verticalLabelPosition=middle;align=center;verticalAlign=middle;strokeWidth=2;" edge="1" parent="1">
          <mxGeometry x="-1" y="-50" width="50" height="50" relative="1" as="geometry">
            <mxPoint x="780" y="400" as="sourcePoint" />
            <mxPoint x="1070" y="400" as="targetPoint" />
            <mxPoint x="-50" y="-50" as="offset" />
          </mxGeometry>
        </mxCell>
        <mxCell id="NFPU-fY8RmMyaIiQJH1n-106" value="Yes. Return&amp;nbsp;&lt;div&gt;new messages&amp;nbsp;&lt;/div&gt;" style="endArrow=classic;html=1;rounded=0;labelPosition=center;verticalLabelPosition=middle;align=left;verticalAlign=middle;strokeColor=#00FF00;strokeWidth=2;" edge="1" parent="1">
          <mxGeometry x="-1" y="-10" width="50" height="50" relative="1" as="geometry">
            <mxPoint x="1070" y="430" as="sourcePoint" />
            <mxPoint x="780" y="430" as="targetPoint" />
            <mxPoint x="10" y="10" as="offset" />
          </mxGeometry>
        </mxCell>
        <mxCell id="NFPU-fY8RmMyaIiQJH1n-107" value="connection closed" style="endArrow=none;html=1;rounded=0;labelPosition=center;verticalLabelPosition=middle;align=center;verticalAlign=middle;strokeColor=#000000;dashed=1;endFill=0;strokeWidth=2;" edge="1" parent="1">
          <mxGeometry x="-0.0345" width="50" height="50" relative="1" as="geometry">
            <mxPoint x="1070" y="460" as="sourcePoint" />
            <mxPoint x="780" y="460" as="targetPoint" />
            <mxPoint as="offset" />
          </mxGeometry>
        </mxCell>
        <mxCell id="NFPU-fY8RmMyaIiQJH1n-108" value="New messages?" style="endArrow=classic;html=1;rounded=0;labelPosition=center;verticalLabelPosition=middle;align=center;verticalAlign=middle;strokeWidth=2;" edge="1" parent="1">
          <mxGeometry x="-1" y="-50" width="50" height="50" relative="1" as="geometry">
            <mxPoint x="780" y="520" as="sourcePoint" />
            <mxPoint x="1070" y="520" as="targetPoint" />
            <mxPoint x="-50" y="-50" as="offset" />
          </mxGeometry>
        </mxCell>
        <mxCell id="NFPU-fY8RmMyaIiQJH1n-109" value="NO" style="endArrow=classic;html=1;rounded=0;labelPosition=center;verticalLabelPosition=middle;align=center;verticalAlign=middle;strokeColor=#FF0000;strokeWidth=2;" edge="1" parent="1">
          <mxGeometry x="-1" y="-20" width="50" height="50" relative="1" as="geometry">
            <mxPoint x="1070" y="550" as="sourcePoint" />
            <mxPoint x="780" y="550" as="targetPoint" />
            <mxPoint x="20" y="20" as="offset" />
          </mxGeometry>
        </mxCell>
        <mxCell id="NFPU-fY8RmMyaIiQJH1n-110" value="connection closed" style="endArrow=none;html=1;rounded=0;labelPosition=center;verticalLabelPosition=middle;align=center;verticalAlign=middle;strokeColor=#000000;dashed=1;endFill=0;strokeWidth=2;" edge="1" parent="1">
          <mxGeometry x="-0.0345" width="50" height="50" relative="1" as="geometry">
            <mxPoint x="1070" y="580" as="sourcePoint" />
            <mxPoint x="780" y="580" as="targetPoint" />
            <mxPoint as="offset" />
          </mxGeometry>
        </mxCell>
        <mxCell id="NFPU-fY8RmMyaIiQJH1n-111" value=".&lt;div&gt;.&lt;/div&gt;&lt;div&gt;.&lt;/div&gt;&lt;div&gt;.&lt;/div&gt;" style="text;html=1;align=center;verticalAlign=middle;resizable=0;points=[];autosize=1;strokeColor=none;fillColor=none;fontStyle=1;fontSize=16;" vertex="1" parent="1">
          <mxGeometry x="905" y="585" width="30" height="90" as="geometry" />
        </mxCell>
        <mxCell id="NFPU-fY8RmMyaIiQJH1n-112" style="edgeStyle=orthogonalEdgeStyle;rounded=0;orthogonalLoop=1;jettySize=auto;html=1;" edge="1" parent="1" source="NFPU-fY8RmMyaIiQJH1n-113">
          <mxGeometry relative="1" as="geometry">
            <mxPoint x="1370" y="680" as="targetPoint" />
            <Array as="points">
              <mxPoint x="1370" y="631" />
            </Array>
          </mxGeometry>
        </mxCell>
        <mxCell id="NFPU-fY8RmMyaIiQJH1n-113" value="client" style="rounded=1;whiteSpace=wrap;html=1;strokeColor=#66B2FF;strokeWidth=2;verticalAlign=middle;" vertex="1" parent="1">
          <mxGeometry x="1330" y="100" width="80" height="40" as="geometry" />
        </mxCell>
        <mxCell id="NFPU-fY8RmMyaIiQJH1n-114" style="edgeStyle=orthogonalEdgeStyle;rounded=0;orthogonalLoop=1;jettySize=auto;html=1;" edge="1" parent="1" source="NFPU-fY8RmMyaIiQJH1n-115">
          <mxGeometry relative="1" as="geometry">
            <mxPoint x="1660" y="680" as="targetPoint" />
            <Array as="points">
              <mxPoint x="1660" y="611" />
            </Array>
          </mxGeometry>
        </mxCell>
        <mxCell id="NFPU-fY8RmMyaIiQJH1n-115" value="server" style="rounded=1;whiteSpace=wrap;html=1;strokeColor=#66B2FF;strokeWidth=2;verticalAlign=middle;" vertex="1" parent="1">
          <mxGeometry x="1620" y="99" width="80" height="40" as="geometry" />
        </mxCell>
        <mxCell id="NFPU-fY8RmMyaIiQJH1n-116" value="New messages?" style="endArrow=classic;html=1;rounded=0;labelPosition=center;verticalLabelPosition=middle;align=center;verticalAlign=middle;strokeWidth=2;" edge="1" parent="1">
          <mxGeometry x="-1" y="-50" width="50" height="50" relative="1" as="geometry">
            <mxPoint x="1370" y="170" as="sourcePoint" />
            <mxPoint x="1660" y="170" as="targetPoint" />
            <mxPoint x="-50" y="-50" as="offset" />
          </mxGeometry>
        </mxCell>
        <mxCell id="NFPU-fY8RmMyaIiQJH1n-117" value="connection closed" style="endArrow=none;html=1;rounded=0;labelPosition=center;verticalLabelPosition=middle;align=center;verticalAlign=middle;strokeColor=#000000;dashed=1;endFill=0;strokeWidth=2;" edge="1" parent="1">
          <mxGeometry x="-0.0345" width="50" height="50" relative="1" as="geometry">
            <mxPoint x="1660" y="320" as="sourcePoint" />
            <mxPoint x="1370" y="320" as="targetPoint" />
            <mxPoint as="offset" />
          </mxGeometry>
        </mxCell>
        <mxCell id="NFPU-fY8RmMyaIiQJH1n-118" value="New messages?" style="endArrow=classic;html=1;rounded=0;labelPosition=center;verticalLabelPosition=middle;align=center;verticalAlign=middle;strokeWidth=2;" edge="1" parent="1">
          <mxGeometry x="-1" y="-50" width="50" height="50" relative="1" as="geometry">
            <mxPoint x="1370" y="370" as="sourcePoint" />
            <mxPoint x="1660" y="370" as="targetPoint" />
            <mxPoint x="-50" y="-50" as="offset" />
          </mxGeometry>
        </mxCell>
        <mxCell id="NFPU-fY8RmMyaIiQJH1n-119" value="Timeout" style="endArrow=classic;html=1;rounded=0;labelPosition=center;verticalLabelPosition=middle;align=center;verticalAlign=middle;strokeColor=#FF0000;strokeWidth=2;" edge="1" parent="1">
          <mxGeometry x="-1" y="-30" width="50" height="50" relative="1" as="geometry">
            <mxPoint x="1660" y="530" as="sourcePoint" />
            <mxPoint x="1370" y="530" as="targetPoint" />
            <mxPoint x="30" y="30" as="offset" />
          </mxGeometry>
        </mxCell>
        <mxCell id="NFPU-fY8RmMyaIiQJH1n-120" value="connection closed" style="endArrow=none;html=1;rounded=0;labelPosition=center;verticalLabelPosition=middle;align=center;verticalAlign=middle;strokeColor=#000000;dashed=1;endFill=0;strokeWidth=2;" edge="1" parent="1">
          <mxGeometry x="-0.0345" width="50" height="50" relative="1" as="geometry">
            <mxPoint x="1660" y="560" as="sourcePoint" />
            <mxPoint x="1370" y="560" as="targetPoint" />
            <mxPoint as="offset" />
          </mxGeometry>
        </mxCell>
        <mxCell id="NFPU-fY8RmMyaIiQJH1n-121" value="&lt;span&gt;&lt;font&gt;Long Polling&lt;/font&gt;&lt;/span&gt;" style="text;html=1;align=center;verticalAlign=middle;resizable=0;points=[];autosize=1;strokeColor=none;fillColor=none;fontSize=18;fontStyle=1" vertex="1" parent="1">
          <mxGeometry x="1460" y="48" width="120" height="30" as="geometry" />
        </mxCell>
        <mxCell id="NFPU-fY8RmMyaIiQJH1n-122" value=".&lt;div&gt;.&lt;/div&gt;&lt;div&gt;.&lt;/div&gt;&lt;div&gt;.&lt;/div&gt;" style="text;html=1;align=center;verticalAlign=middle;resizable=0;points=[];autosize=1;strokeColor=none;fillColor=none;fontStyle=1;fontSize=16;" vertex="1" parent="1">
          <mxGeometry x="1505" y="570" width="30" height="90" as="geometry" />
        </mxCell>
        <mxCell id="NFPU-fY8RmMyaIiQJH1n-123" value="Yes. Return&amp;nbsp;&lt;div&gt;new messages&amp;nbsp;&lt;/div&gt;" style="endArrow=classic;html=1;rounded=0;labelPosition=center;verticalLabelPosition=middle;align=left;verticalAlign=middle;strokeColor=#00FF00;strokeWidth=2;" edge="1" parent="1">
          <mxGeometry x="-1" y="-10" width="50" height="50" relative="1" as="geometry">
            <mxPoint x="1660" y="290" as="sourcePoint" />
            <mxPoint x="1370" y="290" as="targetPoint" />
            <mxPoint x="10" y="10" as="offset" />
          </mxGeometry>
        </mxCell>
        <mxCell id="NFPU-fY8RmMyaIiQJH1n-124" value="Wait for new&lt;div&gt;&amp;nbsp;messages&lt;/div&gt;" style="text;html=1;align=left;verticalAlign=middle;resizable=0;points=[];autosize=1;strokeColor=none;fillColor=none;" vertex="1" parent="1">
          <mxGeometry x="1670" y="200" width="90" height="40" as="geometry" />
        </mxCell>
        <mxCell id="NFPU-fY8RmMyaIiQJH1n-125" style="edgeStyle=orthogonalEdgeStyle;rounded=0;orthogonalLoop=1;jettySize=auto;html=1;" edge="1" parent="1" source="NFPU-fY8RmMyaIiQJH1n-126">
          <mxGeometry relative="1" as="geometry">
            <mxPoint x="1960" y="410" as="targetPoint" />
            <Array as="points">
              <mxPoint x="1960" y="260" />
              <mxPoint x="1960" y="260" />
            </Array>
          </mxGeometry>
        </mxCell>
        <mxCell id="NFPU-fY8RmMyaIiQJH1n-126" value="client" style="rounded=1;whiteSpace=wrap;html=1;strokeColor=#66B2FF;strokeWidth=2;verticalAlign=middle;" vertex="1" parent="1">
          <mxGeometry x="1920" y="99" width="80" height="40" as="geometry" />
        </mxCell>
        <mxCell id="NFPU-fY8RmMyaIiQJH1n-127" style="edgeStyle=orthogonalEdgeStyle;rounded=0;orthogonalLoop=1;jettySize=auto;html=1;" edge="1" parent="1" source="NFPU-fY8RmMyaIiQJH1n-128">
          <mxGeometry relative="1" as="geometry">
            <mxPoint x="2250" y="410" as="targetPoint" />
            <Array as="points">
              <mxPoint x="2250" y="400" />
              <mxPoint x="2250" y="400" />
            </Array>
          </mxGeometry>
        </mxCell>
        <mxCell id="NFPU-fY8RmMyaIiQJH1n-128" value="server" style="rounded=1;whiteSpace=wrap;html=1;strokeColor=#66B2FF;strokeWidth=2;verticalAlign=middle;" vertex="1" parent="1">
          <mxGeometry x="2210" y="99" width="80" height="40" as="geometry" />
        </mxCell>
        <mxCell id="NFPU-fY8RmMyaIiQJH1n-129" value="WebSocket" style="text;html=1;align=center;verticalAlign=middle;resizable=0;points=[];autosize=1;strokeColor=none;fillColor=none;fontStyle=1;fontSize=18;" vertex="1" parent="1">
          <mxGeometry x="2045" y="48" width="120" height="30" as="geometry" />
        </mxCell>
        <mxCell id="NFPU-fY8RmMyaIiQJH1n-130" value="GET /ws" style="rounded=1;whiteSpace=wrap;html=1;" vertex="1" parent="1">
          <mxGeometry x="1870" y="160" width="70" height="40" as="geometry" />
        </mxCell>
        <mxCell id="NFPU-fY8RmMyaIiQJH1n-131" value="HTTP Handshake" style="endArrow=classic;html=1;rounded=0;labelPosition=center;verticalLabelPosition=middle;align=center;verticalAlign=middle;strokeWidth=2;flowAnimation=0;" edge="1" parent="1">
          <mxGeometry x="-0.0525" y="19" width="50" height="50" relative="1" as="geometry">
            <mxPoint x="1960" y="180" as="sourcePoint" />
            <mxPoint x="2250" y="220" as="targetPoint" />
            <mxPoint as="offset" />
          </mxGeometry>
        </mxCell>
        <mxCell id="NFPU-fY8RmMyaIiQJH1n-132" value="Acknowledgment" style="endArrow=classic;html=1;rounded=0;labelPosition=center;verticalLabelPosition=middle;align=left;verticalAlign=middle;strokeColor=#00FF00;strokeWidth=2;" edge="1" parent="1">
          <mxGeometry x="0.2171" y="-21" width="50" height="50" relative="1" as="geometry">
            <mxPoint x="2250" y="230" as="sourcePoint" />
            <mxPoint x="1960" y="280" as="targetPoint" />
            <mxPoint as="offset" />
          </mxGeometry>
        </mxCell>
        <mxCell id="NFPU-fY8RmMyaIiQJH1n-133" value="Bidirectional messages" style="endArrow=classic;html=1;rounded=0;labelPosition=center;verticalLabelPosition=middle;align=center;verticalAlign=middle;strokeColor=#000000;dashed=1;endFill=1;strokeWidth=2;startArrow=classic;startFill=1;" edge="1" parent="1">
          <mxGeometry x="-0.0345" width="50" height="50" relative="1" as="geometry">
            <mxPoint x="2250" y="330" as="sourcePoint" />
            <mxPoint x="1960" y="330" as="targetPoint" />
            <mxPoint as="offset" />
          </mxGeometry>
        </mxCell>
        <mxCell id="NFPU-fY8RmMyaIiQJH1n-134" value="ws" style="rounded=0;orthogonalLoop=1;jettySize=auto;html=1;entryX=0;entryY=0.25;entryDx=0;entryDy=0;startArrow=classic;startFill=1;" edge="1" parent="1" source="NFPU-fY8RmMyaIiQJH1n-135" target="NFPU-fY8RmMyaIiQJH1n-140">
          <mxGeometry x="-0.0007" relative="1" as="geometry">
            <mxPoint as="offset" />
          </mxGeometry>
        </mxCell>
        <mxCell id="NFPU-fY8RmMyaIiQJH1n-135" value="sender" style="rounded=1;whiteSpace=wrap;html=1;strokeColor=#66B2FF;strokeWidth=2;verticalAlign=bottom;" vertex="1" parent="1">
          <mxGeometry x="2450" y="90" width="70" height="60" as="geometry" />
        </mxCell>
        <mxCell id="NFPU-fY8RmMyaIiQJH1n-136" value="" style="sketch=0;aspect=fixed;pointerEvents=1;shadow=0;dashed=0;html=1;strokeColor=none;labelPosition=center;verticalLabelPosition=bottom;verticalAlign=top;align=center;fillColor=#000000;shape=mxgraph.azure.laptop;labelBackgroundColor=none;labelBorderColor=none;fontColor=#000000;" vertex="1" parent="1">
          <mxGeometry x="2460" y="100" width="50" height="30" as="geometry" />
        </mxCell>
        <mxCell id="NFPU-fY8RmMyaIiQJH1n-137" value="receiver" style="rounded=1;whiteSpace=wrap;html=1;strokeColor=#66B2FF;strokeWidth=2;verticalAlign=bottom;" vertex="1" parent="1">
          <mxGeometry x="2450" y="210" width="70" height="60" as="geometry" />
        </mxCell>
        <mxCell id="NFPU-fY8RmMyaIiQJH1n-138" value="" style="sketch=0;pointerEvents=1;shadow=0;dashed=0;html=1;strokeColor=none;fillColor=#000000;labelPosition=center;verticalLabelPosition=bottom;verticalAlign=top;outlineConnect=0;align=center;shape=mxgraph.office.devices.cell_phone_iphone_proportional;" vertex="1" parent="1">
          <mxGeometry x="2476.5" y="220" width="17" height="29" as="geometry" />
        </mxCell>
        <mxCell id="NFPU-fY8RmMyaIiQJH1n-139" value="ws" style="rounded=0;orthogonalLoop=1;jettySize=auto;html=1;startArrow=classic;startFill=1;entryX=1;entryY=0.5;entryDx=0;entryDy=0;exitX=0;exitY=0.667;exitDx=0;exitDy=0;exitPerimeter=0;" edge="1" parent="1" source="NFPU-fY8RmMyaIiQJH1n-140" target="NFPU-fY8RmMyaIiQJH1n-137">
          <mxGeometry relative="1" as="geometry" />
        </mxCell>
        <mxCell id="NFPU-fY8RmMyaIiQJH1n-140" value="Chat Service" style="rounded=1;html=1;strokeColor=#66B2FF;strokeWidth=2;verticalAlign=middle;whiteSpace=wrap;spacingTop=0;align=center;spacing=0;" vertex="1" parent="1">
          <mxGeometry x="2620" y="150" width="90" height="60" as="geometry" />
        </mxCell>
        <mxCell id="NFPU-fY8RmMyaIiQJH1n-141" value="http" style="edgeStyle=orthogonalEdgeStyle;rounded=0;orthogonalLoop=1;jettySize=auto;html=1;labelPosition=right;verticalLabelPosition=middle;align=left;verticalAlign=middle;" edge="1" parent="1" source="NFPU-fY8RmMyaIiQJH1n-142" target="NFPU-fY8RmMyaIiQJH1n-148">
          <mxGeometry relative="1" as="geometry" />
        </mxCell>
        <mxCell id="NFPU-fY8RmMyaIiQJH1n-142" value="User" style="rounded=1;whiteSpace=wrap;html=1;strokeColor=#66B2FF;strokeWidth=2;verticalAlign=middle;labelPosition=center;verticalLabelPosition=middle;align=center;arcSize=19;spacingLeft=0;spacingRight=80;spacingBottom=40;" vertex="1" parent="1">
          <mxGeometry x="3110" y="89" width="130" height="60" as="geometry" />
        </mxCell>
        <mxCell id="NFPU-fY8RmMyaIiQJH1n-143" value="" style="sketch=0;aspect=fixed;pointerEvents=1;shadow=0;dashed=0;html=1;strokeColor=none;labelPosition=center;verticalLabelPosition=bottom;verticalAlign=top;align=center;fillColor=#000000;shape=mxgraph.azure.laptop;labelBackgroundColor=none;labelBorderColor=none;fontColor=#000000;" vertex="1" parent="1">
          <mxGeometry x="3150" y="99" width="50" height="30" as="geometry" />
        </mxCell>
        <mxCell id="NFPU-fY8RmMyaIiQJH1n-144" value="" style="sketch=0;pointerEvents=1;shadow=0;dashed=0;html=1;strokeColor=none;fillColor=#000000;labelPosition=center;verticalLabelPosition=bottom;verticalAlign=top;outlineConnect=0;align=center;shape=mxgraph.office.devices.cell_phone_iphone_proportional;" vertex="1" parent="1">
          <mxGeometry x="3210" y="101" width="17" height="29" as="geometry" />
        </mxCell>
        <mxCell id="NFPU-fY8RmMyaIiQJH1n-145" style="rounded=0;orthogonalLoop=1;jettySize=auto;html=1;entryX=0.5;entryY=0;entryDx=0;entryDy=0;exitX=0.5;exitY=1;exitDx=0;exitDy=0;exitPerimeter=0;" edge="1" parent="1" source="NFPU-fY8RmMyaIiQJH1n-148" target="NFPU-fY8RmMyaIiQJH1n-149">
          <mxGeometry relative="1" as="geometry" />
        </mxCell>
        <mxCell id="NFPU-fY8RmMyaIiQJH1n-146" style="rounded=0;orthogonalLoop=1;jettySize=auto;html=1;exitX=0.5;exitY=1;exitDx=0;exitDy=0;exitPerimeter=0;" edge="1" parent="1" source="NFPU-fY8RmMyaIiQJH1n-148" target="NFPU-fY8RmMyaIiQJH1n-152">
          <mxGeometry relative="1" as="geometry" />
        </mxCell>
        <mxCell id="NFPU-fY8RmMyaIiQJH1n-147" style="rounded=0;orthogonalLoop=1;jettySize=auto;html=1;entryX=0.5;entryY=0;entryDx=0;entryDy=0;exitX=0.5;exitY=1;exitDx=0;exitDy=0;exitPerimeter=0;" edge="1" parent="1" source="NFPU-fY8RmMyaIiQJH1n-148" target="NFPU-fY8RmMyaIiQJH1n-153">
          <mxGeometry relative="1" as="geometry" />
        </mxCell>
        <mxCell id="NFPU-fY8RmMyaIiQJH1n-148" value="Load balancer" style="verticalLabelPosition=middle;html=1;verticalAlign=middle;align=left;strokeColor=none;fillColor=#00BEF2;shape=mxgraph.azure.azure_load_balancer;labelPosition=right;" vertex="1" parent="1">
          <mxGeometry x="3150" y="217" width="50" height="35" as="geometry" />
        </mxCell>
        <mxCell id="NFPU-fY8RmMyaIiQJH1n-149" value="Service discovery" style="rounded=1;whiteSpace=wrap;html=1;strokeColor=#66B2FF;strokeWidth=2;verticalAlign=middle;labelPosition=center;verticalLabelPosition=middle;align=center;arcSize=19;spacingLeft=0;spacingRight=0;spacingBottom=0;spacing=0;" vertex="1" parent="1">
          <mxGeometry x="2930" y="340" width="90" height="60" as="geometry" />
        </mxCell>
        <mxCell id="NFPU-fY8RmMyaIiQJH1n-150" style="rounded=0;orthogonalLoop=1;jettySize=auto;html=1;entryX=0.5;entryY=0;entryDx=0;entryDy=0;exitX=0.5;exitY=1;exitDx=0;exitDy=0;exitPerimeter=0;" edge="1" parent="1" source="NFPU-fY8RmMyaIiQJH1n-148" target="NFPU-fY8RmMyaIiQJH1n-151">
          <mxGeometry relative="1" as="geometry">
            <mxPoint x="3297.5" y="252" as="sourcePoint" />
          </mxGeometry>
        </mxCell>
        <mxCell id="NFPU-fY8RmMyaIiQJH1n-151" value="Authentication service" style="rounded=1;whiteSpace=wrap;html=1;strokeColor=#66B2FF;strokeWidth=2;verticalAlign=middle;labelPosition=center;verticalLabelPosition=middle;align=center;arcSize=19;spacingLeft=0;spacingRight=0;spacingBottom=0;spacing=0;" vertex="1" parent="1">
          <mxGeometry x="3052.5" y="340" width="90" height="60" as="geometry" />
        </mxCell>
        <mxCell id="NFPU-fY8RmMyaIiQJH1n-152" value="Group management" style="rounded=1;whiteSpace=wrap;html=1;strokeColor=#66B2FF;strokeWidth=2;verticalAlign=middle;labelPosition=center;verticalLabelPosition=middle;align=center;arcSize=19;spacingLeft=0;spacingRight=0;spacingBottom=0;spacing=0;" vertex="1" parent="1">
          <mxGeometry x="3210" y="340" width="90" height="60" as="geometry" />
        </mxCell>
        <mxCell id="NFPU-fY8RmMyaIiQJH1n-153" value="User profile" style="rounded=1;whiteSpace=wrap;html=1;strokeColor=#66B2FF;strokeWidth=2;verticalAlign=middle;labelPosition=center;verticalLabelPosition=middle;align=center;arcSize=19;spacingLeft=0;spacingRight=0;spacingBottom=0;spacing=0;" vertex="1" parent="1">
          <mxGeometry x="3332.5" y="340" width="90" height="60" as="geometry" />
        </mxCell>
        <mxCell id="NFPU-fY8RmMyaIiQJH1n-154" value="Stateless" style="text;html=1;align=center;verticalAlign=middle;resizable=0;points=[];autosize=1;strokeColor=none;fillColor=none;fontSize=18;fontStyle=1" vertex="1" parent="1">
          <mxGeometry x="2970" y="105" width="100" height="30" as="geometry" />
        </mxCell>
        <mxCell id="NFPU-fY8RmMyaIiQJH1n-155" value="ws" style="rounded=0;orthogonalLoop=1;jettySize=auto;html=1;entryX=0;entryY=0.25;entryDx=0;entryDy=0;startArrow=classic;startFill=1;" edge="1" parent="1" source="NFPU-fY8RmMyaIiQJH1n-156" target="NFPU-fY8RmMyaIiQJH1n-161">
          <mxGeometry x="-0.0007" relative="1" as="geometry">
            <mxPoint as="offset" />
          </mxGeometry>
        </mxCell>
        <mxCell id="NFPU-fY8RmMyaIiQJH1n-156" value="User 1" style="rounded=1;whiteSpace=wrap;html=1;strokeColor=#66B2FF;strokeWidth=2;verticalAlign=bottom;" vertex="1" parent="1">
          <mxGeometry x="3580" y="78" width="70" height="60" as="geometry" />
        </mxCell>
        <mxCell id="NFPU-fY8RmMyaIiQJH1n-157" value="" style="sketch=0;aspect=fixed;pointerEvents=1;shadow=0;dashed=0;html=1;strokeColor=none;labelPosition=center;verticalLabelPosition=bottom;verticalAlign=top;align=center;fillColor=#000000;shape=mxgraph.azure.laptop;labelBackgroundColor=none;labelBorderColor=none;fontColor=#000000;" vertex="1" parent="1">
          <mxGeometry x="3590" y="88" width="50" height="30" as="geometry" />
        </mxCell>
        <mxCell id="NFPU-fY8RmMyaIiQJH1n-158" value="User 2" style="rounded=1;whiteSpace=wrap;html=1;strokeColor=#66B2FF;strokeWidth=2;verticalAlign=bottom;" vertex="1" parent="1">
          <mxGeometry x="3580" y="198" width="70" height="60" as="geometry" />
        </mxCell>
        <mxCell id="NFPU-fY8RmMyaIiQJH1n-159" value="" style="sketch=0;pointerEvents=1;shadow=0;dashed=0;html=1;strokeColor=none;fillColor=#000000;labelPosition=center;verticalLabelPosition=bottom;verticalAlign=top;outlineConnect=0;align=center;shape=mxgraph.office.devices.cell_phone_iphone_proportional;" vertex="1" parent="1">
          <mxGeometry x="3606.5" y="208" width="17" height="29" as="geometry" />
        </mxCell>
        <mxCell id="NFPU-fY8RmMyaIiQJH1n-160" value="ws" style="rounded=0;orthogonalLoop=1;jettySize=auto;html=1;startArrow=classic;startFill=1;entryX=1;entryY=0.5;entryDx=0;entryDy=0;exitX=0;exitY=0.667;exitDx=0;exitDy=0;exitPerimeter=0;" edge="1" parent="1" source="NFPU-fY8RmMyaIiQJH1n-161" target="NFPU-fY8RmMyaIiQJH1n-158">
          <mxGeometry relative="1" as="geometry" />
        </mxCell>
        <mxCell id="NFPU-fY8RmMyaIiQJH1n-161" value="Chat Service" style="rounded=1;html=1;strokeColor=#66B2FF;strokeWidth=2;verticalAlign=middle;whiteSpace=wrap;spacingTop=0;align=center;spacing=0;" vertex="1" parent="1">
          <mxGeometry x="3750" y="138" width="90" height="60" as="geometry" />
        </mxCell>
        <mxCell id="NFPU-fY8RmMyaIiQJH1n-162" value="Stateful" style="text;html=1;align=center;verticalAlign=middle;resizable=0;points=[];autosize=1;strokeColor=none;fillColor=none;fontSize=18;fontStyle=1" vertex="1" parent="1">
          <mxGeometry x="3700" y="78" width="80" height="30" as="geometry" />
        </mxCell>
        <mxCell id="NFPU-fY8RmMyaIiQJH1n-163" value="Push notification" style="rounded=1;html=1;strokeColor=#66B2FF;strokeWidth=2;verticalAlign=middle;whiteSpace=wrap;spacingTop=0;align=center;spacing=0;" vertex="1" parent="1">
          <mxGeometry x="3640" y="340" width="80" height="60" as="geometry" />
        </mxCell>
        <mxCell id="NFPU-fY8RmMyaIiQJH1n-164" value="Third party" style="text;html=1;align=center;verticalAlign=middle;resizable=0;points=[];autosize=1;strokeColor=none;fillColor=none;fontSize=18;fontStyle=1" vertex="1" parent="1">
          <mxGeometry x="3623.5" y="300" width="110" height="30" as="geometry" />
        </mxCell>
        <mxCell id="NFPU-fY8RmMyaIiQJH1n-165" value="http" style="rounded=0;orthogonalLoop=1;jettySize=auto;html=1;labelPosition=right;verticalLabelPosition=middle;align=left;verticalAlign=middle;entryX=0.5;entryY=0;entryDx=0;entryDy=0;entryPerimeter=0;exitX=0.5;exitY=1;exitDx=0;exitDy=0;" edge="1" parent="1" source="NFPU-fY8RmMyaIiQJH1n-168" target="NFPU-fY8RmMyaIiQJH1n-172">
          <mxGeometry relative="1" as="geometry" />
        </mxCell>
        <mxCell id="NFPU-fY8RmMyaIiQJH1n-166" style="rounded=0;orthogonalLoop=1;jettySize=auto;html=1;entryX=0.5;entryY=0;entryDx=0;entryDy=0;exitX=0.5;exitY=1;exitDx=0;exitDy=0;" edge="1" parent="1" source="NFPU-fY8RmMyaIiQJH1n-168" target="NFPU-fY8RmMyaIiQJH1n-86">
          <mxGeometry relative="1" as="geometry" />
        </mxCell>
        <mxCell id="NFPU-fY8RmMyaIiQJH1n-167" value="ws" style="edgeLabel;html=1;align=center;verticalAlign=middle;resizable=0;points=[];" vertex="1" connectable="0" parent="NFPU-fY8RmMyaIiQJH1n-166">
          <mxGeometry x="-0.2053" relative="1" as="geometry">
            <mxPoint as="offset" />
          </mxGeometry>
        </mxCell>
        <mxCell id="NFPU-fY8RmMyaIiQJH1n-168" value="User" style="rounded=1;whiteSpace=wrap;html=1;strokeColor=#66B2FF;strokeWidth=2;verticalAlign=middle;labelPosition=center;verticalLabelPosition=middle;align=center;arcSize=19;spacingLeft=0;spacingRight=80;spacingBottom=40;" vertex="1" parent="1">
          <mxGeometry x="4310" y="78" width="130" height="60" as="geometry" />
        </mxCell>
        <mxCell id="NFPU-fY8RmMyaIiQJH1n-169" value="" style="sketch=0;aspect=fixed;pointerEvents=1;shadow=0;dashed=0;html=1;strokeColor=none;labelPosition=center;verticalLabelPosition=bottom;verticalAlign=top;align=center;fillColor=#000000;shape=mxgraph.azure.laptop;labelBackgroundColor=none;labelBorderColor=none;fontColor=#000000;" vertex="1" parent="1">
          <mxGeometry x="4350" y="88" width="50" height="30" as="geometry" />
        </mxCell>
        <mxCell id="NFPU-fY8RmMyaIiQJH1n-170" value="" style="sketch=0;pointerEvents=1;shadow=0;dashed=0;html=1;strokeColor=none;fillColor=#000000;labelPosition=center;verticalLabelPosition=bottom;verticalAlign=top;outlineConnect=0;align=center;shape=mxgraph.office.devices.cell_phone_iphone_proportional;" vertex="1" parent="1">
          <mxGeometry x="4410" y="90" width="17" height="29" as="geometry" />
        </mxCell>
        <mxCell id="NFPU-fY8RmMyaIiQJH1n-171" style="edgeStyle=orthogonalEdgeStyle;rounded=0;orthogonalLoop=1;jettySize=auto;html=1;entryX=0.5;entryY=0;entryDx=0;entryDy=0;" edge="1" parent="1" source="NFPU-fY8RmMyaIiQJH1n-172" target="NFPU-fY8RmMyaIiQJH1n-178">
          <mxGeometry relative="1" as="geometry" />
        </mxCell>
        <mxCell id="NFPU-fY8RmMyaIiQJH1n-172" value="Load balancer" style="verticalLabelPosition=middle;html=1;verticalAlign=middle;align=left;strokeColor=none;fillColor=#00BEF2;shape=mxgraph.azure.azure_load_balancer;labelPosition=right;" vertex="1" parent="1">
          <mxGeometry x="4200" y="265" width="50" height="35" as="geometry" />
        </mxCell>
        <mxCell id="NFPU-fY8RmMyaIiQJH1n-173" value="Chat servers" style="rounded=1;whiteSpace=wrap;html=1;strokeColor=#66B2FF;strokeWidth=2;verticalAlign=bottom;labelPosition=center;verticalLabelPosition=middle;align=center;arcSize=19;spacingLeft=0;spacingRight=0;spacingBottom=0;spacing=0;" vertex="1" parent="1">
          <mxGeometry x="4440" y="295" width="80" height="80" as="geometry" />
        </mxCell>
        <mxCell id="NFPU-fY8RmMyaIiQJH1n-174" value="" style="sketch=0;pointerEvents=1;shadow=0;dashed=0;html=1;strokeColor=none;fillColor=#00FF00;labelPosition=center;verticalLabelPosition=bottom;verticalAlign=top;outlineConnect=0;align=center;shape=mxgraph.office.servers.server_farm;fillColor=#2072B8;" vertex="1" parent="1">
          <mxGeometry x="4452" y="300.5" width="56" height="49" as="geometry" />
        </mxCell>
        <mxCell id="NFPU-fY8RmMyaIiQJH1n-175" value="Presence servers" style="rounded=1;whiteSpace=wrap;html=1;strokeColor=#66B2FF;strokeWidth=2;verticalAlign=bottom;labelPosition=center;verticalLabelPosition=middle;align=center;arcSize=19;spacingLeft=0;spacingRight=0;spacingBottom=0;spacing=0;" vertex="1" parent="1">
          <mxGeometry x="4560" y="295" width="80" height="80" as="geometry" />
        </mxCell>
        <mxCell id="NFPU-fY8RmMyaIiQJH1n-176" value="" style="sketch=0;pointerEvents=1;shadow=0;dashed=0;html=1;strokeColor=none;fillColor=#00FF00;labelPosition=center;verticalLabelPosition=bottom;verticalAlign=top;outlineConnect=0;align=center;shape=mxgraph.office.servers.server_farm;fillColor=#2072B8;" vertex="1" parent="1">
          <mxGeometry x="4572" y="300.5" width="56" height="49" as="geometry" />
        </mxCell>
        <mxCell id="NFPU-fY8RmMyaIiQJH1n-177" value="" style="edgeStyle=orthogonalEdgeStyle;rounded=0;orthogonalLoop=1;jettySize=auto;html=1;entryX=1;entryY=0.5;entryDx=0;entryDy=0;" edge="1" parent="1" source="NFPU-fY8RmMyaIiQJH1n-178" target="NFPU-fY8RmMyaIiQJH1n-195">
          <mxGeometry relative="1" as="geometry" />
        </mxCell>
        <mxCell id="NFPU-fY8RmMyaIiQJH1n-178" value="API servers" style="rounded=1;html=1;strokeColor=#66B2FF;strokeWidth=2;verticalAlign=bottom;whiteSpace=wrap;spacingTop=0;align=center;spacing=0;" vertex="1" parent="1">
          <mxGeometry x="4180" y="480" width="90" height="90" as="geometry" />
        </mxCell>
        <mxCell id="NFPU-fY8RmMyaIiQJH1n-179" value="" style="sketch=0;pointerEvents=1;shadow=0;dashed=0;html=1;strokeColor=none;fillColor=#505050;labelPosition=center;verticalLabelPosition=bottom;verticalAlign=top;outlineConnect=0;align=center;shape=mxgraph.office.servers.server_farm;fillColor=#7FBA42;" vertex="1" parent="1">
          <mxGeometry x="4197" y="490" width="56" height="49" as="geometry" />
        </mxCell>
        <mxCell id="NFPU-fY8RmMyaIiQJH1n-180" value="" style="rounded=1;whiteSpace=wrap;html=1;strokeColor=#66B2FF;strokeWidth=2;verticalAlign=top;labelPosition=center;verticalLabelPosition=middle;align=center;arcSize=19;spacingLeft=0;spacingRight=0;spacingBottom=0;spacing=0;dashed=1;" vertex="1" parent="1">
          <mxGeometry x="4000" y="620" width="670" height="130" as="geometry" />
        </mxCell>
        <mxCell id="NFPU-fY8RmMyaIiQJH1n-181" style="edgeStyle=orthogonalEdgeStyle;rounded=0;orthogonalLoop=1;jettySize=auto;html=1;exitX=0.879;exitY=1.006;exitDx=0;exitDy=0;exitPerimeter=0;" edge="1" parent="1" source="NFPU-fY8RmMyaIiQJH1n-86">
          <mxGeometry relative="1" as="geometry">
            <mxPoint x="4630" y="440" as="sourcePoint" />
            <mxPoint x="4630" y="621" as="targetPoint" />
          </mxGeometry>
        </mxCell>
        <mxCell id="NFPU-fY8RmMyaIiQJH1n-182" style="edgeStyle=orthogonalEdgeStyle;rounded=0;orthogonalLoop=1;jettySize=auto;html=1;entryX=0.335;entryY=0.002;entryDx=0;entryDy=0;entryPerimeter=0;" edge="1" parent="1" source="NFPU-fY8RmMyaIiQJH1n-178" target="NFPU-fY8RmMyaIiQJH1n-180">
          <mxGeometry relative="1" as="geometry">
            <mxPoint x="4140" y="610" as="targetPoint" />
          </mxGeometry>
        </mxCell>
        <mxCell id="NFPU-fY8RmMyaIiQJH1n-183" value="KV store" style="rounded=1;html=1;strokeColor=#66B2FF;strokeWidth=2;verticalAlign=bottom;whiteSpace=wrap;spacingTop=0;align=center;spacing=0;" vertex="1" parent="1">
          <mxGeometry x="4030" y="639" width="90" height="90" as="geometry" />
        </mxCell>
        <mxCell id="NFPU-fY8RmMyaIiQJH1n-184" value="" style="sketch=0;shadow=0;dashed=0;html=1;strokeColor=none;labelPosition=center;verticalLabelPosition=bottom;verticalAlign=top;outlineConnect=0;align=center;shape=mxgraph.office.databases.database;fillColor=#2072B8;" vertex="1" parent="1">
          <mxGeometry x="4040" y="650" width="35" height="40" as="geometry" />
        </mxCell>
        <mxCell id="NFPU-fY8RmMyaIiQJH1n-185" value="" style="sketch=0;shadow=0;dashed=0;html=1;strokeColor=none;labelPosition=center;verticalLabelPosition=bottom;verticalAlign=top;outlineConnect=0;align=center;shape=mxgraph.office.databases.database;fillColor=#2072B8;" vertex="1" parent="1">
          <mxGeometry x="4050" y="660" width="35" height="40" as="geometry" />
        </mxCell>
        <mxCell id="NFPU-fY8RmMyaIiQJH1n-186" value="" style="sketch=0;shadow=0;dashed=0;html=1;strokeColor=none;labelPosition=center;verticalLabelPosition=bottom;verticalAlign=top;outlineConnect=0;align=center;shape=mxgraph.office.databases.database;fillColor=#2072B8;" vertex="1" parent="1">
          <mxGeometry x="4060" y="670" width="35" height="40" as="geometry" />
        </mxCell>
        <mxCell id="NFPU-fY8RmMyaIiQJH1n-187" value="KV store" style="rounded=1;html=1;strokeColor=#66B2FF;strokeWidth=2;verticalAlign=bottom;whiteSpace=wrap;spacingTop=0;align=center;spacing=0;" vertex="1" parent="1">
          <mxGeometry x="4300" y="639" width="90" height="90" as="geometry" />
        </mxCell>
        <mxCell id="NFPU-fY8RmMyaIiQJH1n-188" value="" style="sketch=0;shadow=0;dashed=0;html=1;strokeColor=none;labelPosition=center;verticalLabelPosition=bottom;verticalAlign=top;outlineConnect=0;align=center;shape=mxgraph.office.databases.database;fillColor=#2072B8;" vertex="1" parent="1">
          <mxGeometry x="4310" y="650" width="35" height="40" as="geometry" />
        </mxCell>
        <mxCell id="NFPU-fY8RmMyaIiQJH1n-189" value="" style="sketch=0;shadow=0;dashed=0;html=1;strokeColor=none;labelPosition=center;verticalLabelPosition=bottom;verticalAlign=top;outlineConnect=0;align=center;shape=mxgraph.office.databases.database;fillColor=#2072B8;" vertex="1" parent="1">
          <mxGeometry x="4320" y="660" width="35" height="40" as="geometry" />
        </mxCell>
        <mxCell id="NFPU-fY8RmMyaIiQJH1n-190" value="" style="sketch=0;shadow=0;dashed=0;html=1;strokeColor=none;labelPosition=center;verticalLabelPosition=bottom;verticalAlign=top;outlineConnect=0;align=center;shape=mxgraph.office.databases.database;fillColor=#2072B8;" vertex="1" parent="1">
          <mxGeometry x="4330" y="670" width="35" height="40" as="geometry" />
        </mxCell>
        <mxCell id="NFPU-fY8RmMyaIiQJH1n-191" value="KV store" style="rounded=1;html=1;strokeColor=#66B2FF;strokeWidth=2;verticalAlign=bottom;whiteSpace=wrap;spacingTop=0;align=center;spacing=0;" vertex="1" parent="1">
          <mxGeometry x="4538" y="639" width="90" height="90" as="geometry" />
        </mxCell>
        <mxCell id="NFPU-fY8RmMyaIiQJH1n-192" value="" style="sketch=0;shadow=0;dashed=0;html=1;strokeColor=none;labelPosition=center;verticalLabelPosition=bottom;verticalAlign=top;outlineConnect=0;align=center;shape=mxgraph.office.databases.database;fillColor=#2072B8;" vertex="1" parent="1">
          <mxGeometry x="4548" y="650" width="35" height="40" as="geometry" />
        </mxCell>
        <mxCell id="NFPU-fY8RmMyaIiQJH1n-193" value="" style="sketch=0;shadow=0;dashed=0;html=1;strokeColor=none;labelPosition=center;verticalLabelPosition=bottom;verticalAlign=top;outlineConnect=0;align=center;shape=mxgraph.office.databases.database;fillColor=#2072B8;" vertex="1" parent="1">
          <mxGeometry x="4558" y="660" width="35" height="40" as="geometry" />
        </mxCell>
        <mxCell id="NFPU-fY8RmMyaIiQJH1n-194" value="" style="sketch=0;shadow=0;dashed=0;html=1;strokeColor=none;labelPosition=center;verticalLabelPosition=bottom;verticalAlign=top;outlineConnect=0;align=center;shape=mxgraph.office.databases.database;fillColor=#2072B8;" vertex="1" parent="1">
          <mxGeometry x="4568" y="670" width="35" height="40" as="geometry" />
        </mxCell>
        <mxCell id="NFPU-fY8RmMyaIiQJH1n-195" value="Notification servers" style="rounded=1;html=1;strokeColor=#66B2FF;strokeWidth=2;verticalAlign=bottom;whiteSpace=wrap;spacingTop=0;align=center;spacing=0;" vertex="1" parent="1">
          <mxGeometry x="4030" y="480" width="90" height="90" as="geometry" />
        </mxCell>
        <mxCell id="NFPU-fY8RmMyaIiQJH1n-196" value="" style="sketch=0;pointerEvents=1;shadow=0;dashed=0;html=1;strokeColor=none;fillColor=#505050;labelPosition=center;verticalLabelPosition=bottom;verticalAlign=top;outlineConnect=0;align=center;shape=mxgraph.office.servers.server_farm;fillColor=#7FBA42;" vertex="1" parent="1">
          <mxGeometry x="4047" y="490" width="56" height="49" as="geometry" />
        </mxCell>
        <mxCell id="NFPU-fY8RmMyaIiQJH1n-197" style="edgeStyle=orthogonalEdgeStyle;rounded=0;orthogonalLoop=1;jettySize=auto;html=1;" edge="1" parent="1" source="NFPU-fY8RmMyaIiQJH1n-195">
          <mxGeometry relative="1" as="geometry">
            <mxPoint x="4075" y="618" as="targetPoint" />
          </mxGeometry>
        </mxCell>
        <mxCell id="NFPU-fY8RmMyaIiQJH1n-198" style="edgeStyle=orthogonalEdgeStyle;rounded=0;orthogonalLoop=1;jettySize=auto;html=1;entryX=0.142;entryY=0.991;entryDx=0;entryDy=0;entryPerimeter=0;startArrow=classic;startFill=1;exitX=1;exitY=0.25;exitDx=0;exitDy=0;" edge="1" parent="1" source="NFPU-fY8RmMyaIiQJH1n-178" target="NFPU-fY8RmMyaIiQJH1n-86">
          <mxGeometry relative="1" as="geometry" />
        </mxCell>
        <mxCell id="NFPU-fY8RmMyaIiQJH1n-199" style="edgeStyle=orthogonalEdgeStyle;rounded=0;orthogonalLoop=1;jettySize=auto;html=1;entryX=0.787;entryY=0.987;entryDx=0;entryDy=0;entryPerimeter=0;startArrow=classic;startFill=1;" edge="1" parent="1" source="NFPU-fY8RmMyaIiQJH1n-178" target="NFPU-fY8RmMyaIiQJH1n-86">
          <mxGeometry relative="1" as="geometry">
            <mxPoint x="4609" y="400" as="targetPoint" />
          </mxGeometry>
        </mxCell>
      </root>
    </mxGraphModel>
  </diagram>
</mxfile>
